<svg width="20" height="21" viewBox="0 0 20 21" fill="none" xmlns="http://www.w3.org/2000/svg">
<path d="M19.2131 7.87715C19.2162 7.93493 19.2121 7.99373 19.1983 8.05214L17.9646 13.2334C17.9024 13.4945 17.6796 13.678 17.4235 13.6794L10.0216 13.7187C10.0206 13.7187 10.0197 13.7187 10.0188 13.7187H2.61682C2.35933 13.7187 2.13495 13.5345 2.07275 13.2721L0.839103 8.07121C0.824897 8.01124 0.820785 7.95079 0.824374 7.89152C0.34714 7.73364 0 7.26473 0 6.71214C0 6.03033 0.528224 5.47569 1.17757 5.47569C1.82692 5.47569 2.35514 6.03033 2.35514 6.71214C2.35514 7.09611 2.18759 7.43964 1.92523 7.6666L3.46976 9.3006C3.86011 9.71361 4.40179 9.95038 4.95596 9.95038C5.61122 9.95038 6.23596 9.62364 6.62938 9.07623L9.1677 5.54478C8.95447 5.32104 8.82243 5.01189 8.82243 4.67102C8.82243 3.98921 9.35065 3.43457 10 3.43457C10.6493 3.43457 11.1776 3.98921 11.1776 4.67102C11.1776 5.00168 11.0526 5.3018 10.8505 5.52389C10.8511 5.52484 10.852 5.52562 10.8526 5.52664L13.3726 9.06783C13.7658 9.6205 14.3928 9.95046 15.0499 9.95046C15.6092 9.95046 16.1351 9.72177 16.5305 9.30648L18.0848 7.67453C17.8169 7.44765 17.6449 7.10082 17.6449 6.71214C17.6449 6.03033 18.1731 5.47569 18.8224 5.47569C19.4718 5.47569 20 6.03033 20 6.71214C20 7.24998 19.6707 7.70742 19.2131 7.87715ZM17.8443 15.5635C17.8443 15.2384 17.5932 14.9748 17.2835 14.9748H2.77884C2.46916 14.9748 2.21809 15.2384 2.21809 15.5635V16.9766C2.21809 17.3018 2.46916 17.5654 2.77884 17.5654H17.2835C17.5932 17.5654 17.8443 17.3018 17.8443 16.9766V15.5635Z" fill="#DE8F33"/>
</svg>
