<svg width="21" height="20" viewBox="0 0 21 20" fill="none" xmlns="http://www.w3.org/2000/svg">
<g clip-path="url(#clip0_0_80)">
<path fill-rule="evenodd" clip-rule="evenodd" d="M15.9064 0.0843882C15.9127 0.0843882 15.9179 0.0654008 15.9179 0.0421941V0L10.3665 0.000401107C5.58627 0.000749208 4.81313 0.00287945 4.80071 0.0157803C4.78937 0.0275419 4.78627 0.253671 4.78627 1.07023V2.1097L0.19043 2.1097V2.19409C0.19043 2.24332 0.195245 2.27848 0.201977 2.27848C0.208571 2.27848 0.213524 2.31013 0.213524 2.35232C0.213524 2.39451 0.218478 2.42616 0.225072 2.42616C0.231665 2.42616 0.236619 2.45781 0.236619 2.5C0.236619 2.54219 0.241573 2.57384 0.248166 2.57384C0.25476 2.57384 0.259714 2.60549 0.259714 2.64768C0.259714 2.68987 0.264668 2.72152 0.271261 2.72152C0.277855 2.72152 0.282808 2.75316 0.282808 2.79536C0.282808 2.83755 0.287762 2.8692 0.294356 2.8692C0.300949 2.8692 0.305903 2.90084 0.305903 2.94304C0.305903 2.98523 0.310857 3.01688 0.31745 3.01688C0.324044 3.01688 0.328998 3.04852 0.328998 3.09072C0.328998 3.13291 0.333952 3.16456 0.340545 3.16456C0.347139 3.16456 0.352093 3.1962 0.352093 3.2384C0.352093 3.28059 0.357046 3.31224 0.36364 3.31224C0.370233 3.31224 0.375187 3.34388 0.375187 3.38608C0.375187 3.42827 0.380141 3.45992 0.386735 3.45992C0.393328 3.45992 0.398282 3.49156 0.398282 3.53376C0.398282 3.57595 0.403236 3.6076 0.409829 3.6076C0.416423 3.6076 0.421377 3.63924 0.421377 3.68143C0.421377 3.72363 0.42633 3.75527 0.432924 3.75527C0.439517 3.75527 0.444471 3.78692 0.444471 3.82911C0.444471 3.87131 0.449425 3.90295 0.456019 3.90295C0.462612 3.90295 0.467566 3.9346 0.467566 3.97679C0.467566 4.01899 0.47252 4.05063 0.479113 4.05063C0.485707 4.05063 0.490661 4.08228 0.490661 4.12447C0.490661 4.16667 0.495614 4.19831 0.502208 4.19831C0.508801 4.19831 0.513755 4.22996 0.513755 4.27215C0.513755 4.31435 0.518709 4.34599 0.525303 4.34599C0.531896 4.34599 0.53685 4.37764 0.53685 4.41983C0.53685 4.46203 0.541804 4.49367 0.548397 4.49367C0.554991 4.49367 0.559945 4.52532 0.559945 4.56751C0.559945 4.6097 0.564899 4.64135 0.571492 4.64135C0.578086 4.64135 0.583039 4.673 0.583039 4.71519C0.583039 4.75738 0.587993 4.78903 0.594587 4.78903C0.60118 4.78903 0.606134 4.82068 0.606134 4.86287C0.606134 4.90506 0.611088 4.93671 0.617681 4.93671C0.624275 4.93671 0.629229 4.96835 0.629229 5.01055C0.629229 5.05274 0.634183 5.08439 0.640776 5.08439C0.64737 5.08439 0.652323 5.11603 0.652323 5.15823C0.652323 5.20042 0.657277 5.23207 0.663871 5.23207C0.670464 5.23207 0.675418 5.26371 0.675418 5.30591C0.675418 5.3481 0.680372 5.37975 0.686965 5.37975C0.693559 5.37975 0.698513 5.41139 0.698513 5.45359C0.698513 5.49578 0.703467 5.52743 0.71006 5.52743C0.716654 5.52743 0.721608 5.55907 0.721608 5.60127C0.721608 5.64346 0.726561 5.67511 0.733155 5.67511C0.739748 5.67511 0.744702 5.70675 0.744702 5.74895C0.744702 5.79114 0.749656 5.82278 0.75625 5.82278C0.762843 5.82278 0.767797 5.85443 0.767797 5.89662C0.767797 5.93882 0.772751 5.97046 0.779344 5.97046C0.785938 5.97046 0.790892 6.00211 0.790892 6.0443C0.790892 6.0865 0.795845 6.11814 0.802439 6.11814C0.809032 6.11814 0.813986 6.14979 0.813986 6.19198C0.813986 6.23418 0.81894 6.26582 0.825534 6.26582C0.832127 6.26582 0.837081 6.29747 0.837081 6.33966C0.837081 6.38186 0.842035 6.4135 0.848628 6.4135C0.855222 6.4135 0.860176 6.44515 0.860176 6.48734C0.860176 6.52954 0.865129 6.56118 0.871723 6.56118C0.878317 6.56118 0.88327 6.59283 0.88327 6.63502C0.88327 6.67722 0.888224 6.70886 0.894818 6.70886C0.901411 6.70886 0.906365 6.74051 0.906365 6.7827C0.906365 6.82489 0.911319 6.85654 0.917912 6.85654C0.924506 6.85654 0.92946 6.88819 0.92946 6.93038C0.92946 6.97257 0.934413 7.00422 0.941007 7.00422C0.947427 7.00422 0.952554 7.03235 0.952554 7.06751C0.952554 7.10267 0.947427 7.1308 0.941007 7.1308C0.933825 7.1308 0.92946 7.19058 0.92946 7.28903C0.92946 7.38748 0.925095 7.44726 0.917912 7.44726C0.91073 7.44726 0.906365 7.50704 0.906365 7.60548C0.906365 7.70393 0.902 7.76371 0.894818 7.76371C0.887635 7.76371 0.88327 7.82349 0.88327 7.92194C0.88327 8.02039 0.878905 8.08017 0.871723 8.08017C0.864541 8.08017 0.860176 8.13995 0.860176 8.2384C0.860176 8.33685 0.855811 8.39662 0.848628 8.39662C0.841446 8.39662 0.837081 8.4564 0.837081 8.55485C0.837081 8.6533 0.832716 8.71308 0.825534 8.71308C0.818351 8.71308 0.813986 8.77286 0.813986 8.87131C0.813986 8.96976 0.809621 9.02954 0.802439 9.02954C0.795256 9.02954 0.790892 9.08931 0.790892 9.18776C0.790892 9.28621 0.786527 9.34599 0.779344 9.34599C0.772162 9.34599 0.767797 9.40577 0.767797 9.50422C0.767797 9.60267 0.763432 9.66245 0.75625 9.66245C0.749067 9.66245 0.744702 9.72223 0.744702 9.82067C0.744702 9.91912 0.740337 9.9789 0.733155 9.9789C0.725972 9.9789 0.721608 10.0387 0.721608 10.1371C0.721608 10.2356 0.717243 10.2954 0.71006 10.2954C0.702878 10.2954 0.698513 10.3551 0.698513 10.4536C0.698513 10.552 0.694148 10.6118 0.686965 10.6118C0.679783 10.6118 0.675418 10.6716 0.675418 10.77C0.675418 10.8685 0.671053 10.9283 0.663871 10.9283C0.656688 10.9283 0.652323 10.988 0.652323 11.0865C0.652323 11.1849 0.647959 11.2447 0.640776 11.2447C0.633594 11.2447 0.629229 11.3045 0.629229 11.403C0.629229 11.5014 0.624864 11.5612 0.617681 11.5612C0.610499 11.5612 0.606134 11.621 0.606134 11.7194C0.606134 11.8179 0.601769 11.8776 0.594587 11.8776C0.587404 11.8776 0.583039 11.9374 0.583039 12.0359C0.583039 12.1343 0.578674 12.1941 0.571492 12.1941C0.56431 12.1941 0.559945 12.2539 0.559945 12.3523C0.559945 12.4508 0.55558 12.5105 0.548397 12.5105C0.541215 12.5105 0.53685 12.5703 0.53685 12.6688C0.53685 12.7672 0.532485 12.827 0.525303 12.827C0.51812 12.827 0.513755 12.8868 0.513755 12.9852C0.513755 13.0837 0.50939 13.1435 0.502208 13.1435C0.495026 13.1435 0.490661 13.2032 0.490661 13.3017C0.490661 13.4001 0.486296 13.4599 0.479113 13.4599C0.471931 13.4599 0.467566 13.5197 0.467566 13.6181C0.467566 13.7166 0.463201 13.7764 0.456019 13.7764C0.448836 13.7764 0.444471 13.8362 0.444471 13.9346C0.444471 14.033 0.440106 14.0928 0.432924 14.0928C0.425741 14.0928 0.421377 14.1526 0.421377 14.2511C0.421377 14.3495 0.417012 14.4093 0.409829 14.4093C0.402647 14.4093 0.398282 14.4691 0.398282 14.5675C0.398282 14.666 0.393917 14.7257 0.386735 14.7257C0.379552 14.7257 0.375187 14.7855 0.375187 14.884C0.375187 14.9824 0.370822 15.0422 0.36364 15.0422C0.356457 15.0422 0.352093 15.102 0.352093 15.2004C0.352093 15.2989 0.347728 15.3587 0.340545 15.3587C0.333363 15.3587 0.328998 15.4184 0.328998 15.5169C0.328998 15.6153 0.324633 15.6751 0.31745 15.6751C0.310268 15.6751 0.305903 15.7349 0.305903 15.8333C0.305903 15.9318 0.301538 15.9916 0.294356 15.9916C0.287173 15.9916 0.282808 16.0513 0.282808 16.1498C0.282808 16.2482 0.278444 16.308 0.271261 16.308C0.264079 16.308 0.259714 16.3678 0.259714 16.4662C0.259714 16.5647 0.255349 16.6245 0.248166 16.6245C0.240984 16.6245 0.236619 16.6842 0.236619 16.7827C0.236619 16.8811 0.232254 16.9409 0.225072 16.9409C0.217889 16.9409 0.213524 17.0007 0.213524 17.0992C0.213524 17.1976 0.209159 17.2574 0.201977 17.2574C0.19476 17.2574 0.19043 17.3207 0.19043 17.4262C0.19043 17.5316 0.19476 17.5949 0.201977 17.5949C0.208328 17.5949 0.213524 17.5902 0.213524 17.5844C0.213524 17.5786 0.229113 17.5738 0.248166 17.5738C0.26722 17.5738 0.282808 17.5691 0.282808 17.5633C0.282808 17.5575 0.303594 17.5527 0.328998 17.5527C0.354402 17.5527 0.375187 17.548 0.375187 17.5422C0.375187 17.5364 0.390776 17.5316 0.409829 17.5316C0.428882 17.5316 0.444471 17.5269 0.444471 17.5211C0.444471 17.5153 0.46006 17.5105 0.479113 17.5105C0.498166 17.5105 0.513755 17.5058 0.513755 17.5C0.513755 17.4942 0.534541 17.4895 0.559945 17.4895C0.585349 17.4895 0.606134 17.4847 0.606134 17.4789C0.606134 17.4731 0.621723 17.4684 0.640776 17.4684C0.659829 17.4684 0.675418 17.4636 0.675418 17.4578C0.675418 17.452 0.691007 17.4473 0.71006 17.4473C0.729113 17.4473 0.744702 17.4425 0.744702 17.4367C0.744702 17.4309 0.765487 17.4262 0.790892 17.4262C0.816296 17.4262 0.837081 17.4214 0.837081 17.4156C0.837081 17.4098 0.85267 17.4051 0.871723 17.4051C0.890776 17.4051 0.906365 17.4003 0.906365 17.3945C0.906365 17.3887 0.921954 17.384 0.941007 17.384C0.96006 17.384 0.975649 17.3792 0.975649 17.3734C0.975649 17.3676 0.996434 17.3629 1.02184 17.3629C1.04724 17.3629 1.06803 17.3581 1.06803 17.3523C1.06803 17.3465 1.08362 17.3418 1.10267 17.3418C1.12172 17.3418 1.13731 17.337 1.13731 17.3312C1.13731 17.3254 1.1529 17.3207 1.17195 17.3207C1.19101 17.3207 1.2066 17.3159 1.2066 17.3101C1.2066 17.3043 1.22738 17.2996 1.25279 17.2996C1.27819 17.2996 1.29897 17.2948 1.29897 17.289C1.29897 17.2832 1.31456 17.2785 1.33362 17.2785C1.35267 17.2785 1.36826 17.2737 1.36826 17.2679C1.36826 17.2621 1.38385 17.2574 1.4029 17.2574C1.42195 17.2574 1.43754 17.2526 1.43754 17.2468C1.43754 17.241 1.45833 17.2363 1.48373 17.2363C1.50914 17.2363 1.52992 17.2315 1.52992 17.2257C1.52992 17.2199 1.54551 17.2152 1.56456 17.2152C1.58362 17.2152 1.59921 17.2104 1.59921 17.2046C1.59921 17.1988 1.61479 17.1941 1.63385 17.1941C1.6529 17.1941 1.66849 17.1893 1.66849 17.1835C1.66849 17.1777 1.68927 17.173 1.71468 17.173C1.74008 17.173 1.76087 17.1682 1.76087 17.1624C1.76087 17.1566 1.77646 17.1519 1.79551 17.1519C1.81456 17.1519 1.83015 17.1472 1.83015 17.1413C1.83015 17.1355 1.84574 17.1308 1.86479 17.1308C1.88385 17.1308 1.89944 17.1261 1.89944 17.1203C1.89944 17.1145 1.92022 17.1097 1.94563 17.1097C1.97103 17.1097 1.99182 17.105 1.99182 17.0992C1.99182 17.0934 2.0074 17.0886 2.02646 17.0886C2.04551 17.0886 2.0611 17.0839 2.0611 17.0781C2.0611 17.0723 2.07669 17.0675 2.09574 17.0675C2.11479 17.0675 2.13038 17.0628 2.13038 17.057C2.13038 17.0512 2.15117 17.0464 2.17657 17.0464C2.20198 17.0464 2.22276 17.0417 2.22276 17.0359C2.22276 17.0301 2.23835 17.0253 2.2574 17.0253C2.27646 17.0253 2.29205 17.0206 2.29205 17.0148C2.29205 17.009 2.30764 17.0042 2.32669 17.0042C2.34574 17.0042 2.36133 16.9995 2.36133 16.9937C2.36133 16.9879 2.38212 16.9831 2.40752 16.9831C2.43292 16.9831 2.45371 16.9784 2.45371 16.9726C2.45371 16.9668 2.4693 16.962 2.48835 16.962C2.5074 16.962 2.52299 16.9573 2.52299 16.9515C2.52299 16.9457 2.53858 16.9409 2.55764 16.9409C2.57669 16.9409 2.59228 16.9362 2.59228 16.9304C2.59228 16.9246 2.61306 16.9198 2.63847 16.9198C2.66387 16.9198 2.68466 16.9151 2.68466 16.9093C2.68466 16.9035 2.70024 16.8987 2.7193 16.8987C2.73835 16.8987 2.75394 16.894 2.75394 16.8882C2.75394 16.8824 2.76953 16.8776 2.78858 16.8776C2.80764 16.8776 2.82322 16.8729 2.82322 16.8671C2.82322 16.8613 2.84401 16.8565 2.86941 16.8565C2.89482 16.8565 2.9156 16.8518 2.9156 16.846C2.9156 16.8402 2.93119 16.8354 2.95024 16.8354C2.9693 16.8354 2.98489 16.8307 2.98489 16.8249C2.98489 16.8191 3.00048 16.8143 3.01953 16.8143C3.03858 16.8143 3.05417 16.8096 3.05417 16.8038C3.05417 16.798 3.07496 16.7932 3.10036 16.7932C3.12576 16.7932 3.14655 16.7885 3.14655 16.7827C3.14655 16.7769 3.16214 16.7722 3.18119 16.7722C3.20024 16.7722 3.21583 16.7674 3.21583 16.7616C3.21583 16.7558 3.23142 16.7511 3.25048 16.7511C3.26953 16.7511 3.28512 16.7463 3.28512 16.7405C3.28512 16.7347 3.3059 16.73 3.33131 16.73C3.35671 16.73 3.3775 16.7252 3.3775 16.7194C3.3775 16.7136 3.39309 16.7089 3.41214 16.7089C3.43119 16.7089 3.44678 16.7041 3.44678 16.6983C3.44678 16.6925 3.46237 16.6878 3.48142 16.6878C3.50048 16.6878 3.51606 16.683 3.51606 16.6772C3.51606 16.6714 3.53685 16.6667 3.56225 16.6667C3.58766 16.6667 3.60844 16.6619 3.60844 16.6561C3.60844 16.6503 3.62403 16.6456 3.64309 16.6456C3.66214 16.6456 3.67773 16.6408 3.67773 16.635C3.67773 16.6292 3.69332 16.6245 3.71237 16.6245C3.73142 16.6245 3.74701 16.6197 3.74701 16.6139C3.74701 16.6081 3.7678 16.6034 3.7932 16.6034C3.81861 16.6034 3.83939 16.5986 3.83939 16.5928C3.83939 16.587 3.85498 16.5823 3.87403 16.5823C3.89309 16.5823 3.90867 16.5775 3.90867 16.5717C3.90867 16.5659 3.92426 16.5612 3.94332 16.5612C3.96237 16.5612 3.97796 16.5564 3.97796 16.5506C3.97796 16.5448 3.99874 16.5401 4.02415 16.5401C4.04955 16.5401 4.07034 16.5353 4.07034 16.5295C4.07034 16.5237 4.08593 16.519 4.10498 16.519C4.12403 16.519 4.13962 16.5142 4.13962 16.5084C4.13962 16.5026 4.15521 16.4979 4.17426 16.4979C4.19332 16.4979 4.20891 16.4931 4.20891 16.4873C4.20891 16.4815 4.22969 16.4768 4.2551 16.4768C4.2805 16.4768 4.30128 16.472 4.30128 16.4662C4.30128 16.4604 4.31687 16.4557 4.33593 16.4557C4.35498 16.4557 4.37057 16.451 4.37057 16.4451C4.37057 16.4393 4.38616 16.4346 4.40521 16.4346C4.42426 16.4346 4.43985 16.4299 4.43985 16.4241C4.43985 16.4182 4.46064 16.4135 4.48604 16.4135C4.51145 16.4135 4.53223 16.4088 4.53223 16.403C4.53223 16.3972 4.54782 16.3924 4.56687 16.3924C4.58593 16.3924 4.60152 16.3877 4.60152 16.3819C4.60152 16.3761 4.6171 16.3713 4.63616 16.3713C4.65521 16.3713 4.6708 16.3666 4.6708 16.3608C4.6708 16.355 4.69158 16.3502 4.71699 16.3502C4.74239 16.3502 4.76318 16.3455 4.76318 16.3397C4.76318 16.3339 4.76837 16.3291 4.77473 16.3291C4.78238 16.3291 4.78627 16.948 4.78627 18.1646V20H4.85556C4.89404 20 4.92484 19.9953 4.92484 19.9895C4.92484 19.9837 4.95082 19.9789 4.98258 19.9789C5.01433 19.9789 5.04031 19.9742 5.04031 19.9684C5.04031 19.9626 5.0663 19.9578 5.09805 19.9578C5.12981 19.9578 5.15579 19.9531 5.15579 19.9473C5.15579 19.9415 5.18177 19.9367 5.21352 19.9367C5.24528 19.9367 5.27126 19.932 5.27126 19.9262C5.27126 19.9204 5.29724 19.9156 5.329 19.9156C5.36075 19.9156 5.38673 19.9109 5.38673 19.9051C5.38673 19.8993 5.41272 19.8945 5.44447 19.8945C5.47623 19.8945 5.50221 19.8898 5.50221 19.884C5.50221 19.8782 5.52819 19.8734 5.55994 19.8734C5.5917 19.8734 5.61768 19.8687 5.61768 19.8629C5.61768 19.8571 5.64366 19.8523 5.67542 19.8523C5.70717 19.8523 5.73315 19.8476 5.73315 19.8418C5.73315 19.836 5.75914 19.8312 5.79089 19.8312C5.82265 19.8312 5.84863 19.8265 5.84863 19.8207C5.84863 19.8149 5.87461 19.8101 5.90636 19.8101C5.93812 19.8101 5.9641 19.8054 5.9641 19.7996C5.9641 19.7938 5.99008 19.789 6.02184 19.789C6.05359 19.789 6.07958 19.7843 6.07958 19.7785C6.07958 19.7727 6.10556 19.7679 6.13731 19.7679C6.16907 19.7679 6.19505 19.7632 6.19505 19.7574C6.19505 19.7516 6.22103 19.7468 6.25279 19.7468C6.28454 19.7468 6.31052 19.7421 6.31052 19.7363C6.31052 19.7305 6.3365 19.7257 6.36826 19.7257C6.40001 19.7257 6.426 19.721 6.426 19.7152C6.426 19.7094 6.45198 19.7046 6.48373 19.7046C6.51549 19.7046 6.54147 19.6999 6.54147 19.6941C6.54147 19.6883 6.56745 19.6835 6.59921 19.6835C6.63096 19.6835 6.65694 19.6788 6.65694 19.673C6.65694 19.6672 6.68292 19.6624 6.71468 19.6624C6.74643 19.6624 6.77242 19.6577 6.77242 19.6519C6.77242 19.6461 6.7984 19.6413 6.83015 19.6413C6.86191 19.6413 6.88789 19.6366 6.88789 19.6308C6.88789 19.625 6.91387 19.6203 6.94563 19.6203C6.97738 19.6203 7.00336 19.6155 7.00336 19.6097C7.00336 19.6039 7.02934 19.5992 7.0611 19.5992C7.09285 19.5992 7.11884 19.5944 7.11884 19.5886C7.11884 19.5828 7.14482 19.5781 7.17657 19.5781C7.20833 19.5781 7.23431 19.5733 7.23431 19.5675C7.23431 19.5617 7.26029 19.557 7.29205 19.557C7.3238 19.557 7.34978 19.5522 7.34978 19.5464C7.34978 19.5406 7.37576 19.5359 7.40752 19.5359C7.43927 19.5359 7.46526 19.5311 7.46526 19.5253C7.46526 19.5195 7.49124 19.5148 7.52299 19.5148C7.55475 19.5148 7.58073 19.51 7.58073 19.5042C7.58073 19.4984 7.60671 19.4937 7.63847 19.4937C7.67022 19.4937 7.6962 19.4889 7.6962 19.4831C7.6962 19.4773 7.72218 19.4726 7.75394 19.4726C7.7857 19.4726 7.81168 19.4678 7.81168 19.462C7.81168 19.4562 7.83766 19.4515 7.86941 19.4515C7.90117 19.4515 7.92715 19.4467 7.92715 19.4409C7.92715 19.4351 7.95313 19.4304 7.98489 19.4304C8.01664 19.4304 8.04262 19.4256 8.04262 19.4198C8.04262 19.414 8.06861 19.4093 8.10036 19.4093C8.13212 19.4093 8.1581 19.4045 8.1581 19.3987C8.1581 19.3929 8.18408 19.3882 8.21583 19.3882C8.24759 19.3882 8.27357 19.3834 8.27357 19.3776C8.27357 19.3718 8.29955 19.3671 8.33131 19.3671C8.36306 19.3671 8.38904 19.3623 8.38904 19.3565C8.38904 19.3507 8.41502 19.346 8.44678 19.346C8.47854 19.346 8.50452 19.3412 8.50452 19.3354C8.50452 19.3296 8.5305 19.3249 8.56225 19.3249C8.59401 19.3249 8.61999 19.3201 8.61999 19.3143C8.61999 19.3085 8.64597 19.3038 8.67773 19.3038C8.70948 19.3038 8.73546 19.2991 8.73546 19.2932C8.73546 19.2874 8.76145 19.2827 8.7932 19.2827C8.82496 19.2827 8.85094 19.278 8.85094 19.2722C8.85094 19.2663 8.87692 19.2616 8.90867 19.2616C8.94043 19.2616 8.96641 19.2569 8.96641 19.2511C8.96641 19.2453 8.99239 19.2405 9.02415 19.2405C9.0559 19.2405 9.08188 19.2358 9.08188 19.23C9.08188 19.2242 9.10787 19.2194 9.13962 19.2194C9.17138 19.2194 9.19736 19.2147 9.19736 19.2089C9.19736 19.2031 9.22334 19.1983 9.25509 19.1983C9.28685 19.1983 9.31283 19.1936 9.31283 19.1878C9.31283 19.182 9.33881 19.1772 9.37057 19.1772C9.40232 19.1772 9.4283 19.1725 9.4283 19.1667C9.4283 19.1609 9.45429 19.1561 9.48604 19.1561C9.5178 19.1561 9.54378 19.1514 9.54378 19.1456C9.54378 19.1398 9.56976 19.135 9.60151 19.135C9.63327 19.135 9.65925 19.1303 9.65925 19.1245C9.65925 19.1187 9.68523 19.1139 9.71699 19.1139C9.74874 19.1139 9.77472 19.1092 9.77472 19.1034C9.77472 19.0976 9.80071 19.0928 9.83246 19.0928C9.86422 19.0928 9.8902 19.0881 9.8902 19.0823C9.8902 19.0765 9.91618 19.0717 9.94794 19.0717C9.97969 19.0717 10.0057 19.067 10.0057 19.0612C10.0057 19.0554 10.0317 19.0506 10.0634 19.0506C10.0952 19.0506 10.1211 19.0459 10.1211 19.0401C10.1211 19.0343 10.1471 19.0295 10.1789 19.0295C10.2106 19.0295 10.2366 19.0248 10.2366 19.019C10.2366 19.0132 10.2626 19.0084 10.2944 19.0084C10.3261 19.0084 10.3521 19.0037 10.3521 18.9979C10.3521 18.9921 10.3781 18.9873 10.4098 18.9873C10.4416 18.9873 10.4676 18.9826 10.4676 18.9768C10.4676 18.971 10.4935 18.9662 10.5253 18.9662C10.5571 18.9662 10.583 18.9615 10.583 18.9557C10.583 18.9499 10.609 18.9451 10.6408 18.9451C10.6725 18.9451 10.6985 18.9404 10.6985 18.9346C10.6985 18.9288 10.7245 18.9241 10.7562 18.9241C10.788 18.9241 10.814 18.9193 10.814 18.9135C10.814 18.9077 10.84 18.903 10.8717 18.903C10.9035 18.903 10.9295 18.8982 10.9295 18.8924C10.9295 18.8866 10.9554 18.8819 10.9872 18.8819C11.019 18.8819 11.0449 18.8771 11.0449 18.8713C11.0449 18.8655 11.0709 18.8608 11.1027 18.8608C11.1344 18.8608 11.1604 18.856 11.1604 18.8502C11.1604 18.8444 11.1864 18.8397 11.2181 18.8397C11.2499 18.8397 11.2759 18.8349 11.2759 18.8291C11.2759 18.8233 11.3019 18.8186 11.3336 18.8186C11.3654 18.8186 11.3914 18.8138 11.3914 18.808C11.3914 18.8022 11.4173 18.7975 11.4491 18.7975C11.4808 18.7975 11.5068 18.7927 11.5068 18.7869C11.5068 18.7811 11.5328 18.7764 11.5646 18.7764C11.5963 18.7764 11.6223 18.7716 11.6223 18.7658C11.6223 18.76 11.6483 18.7553 11.68 18.7553H11.7378L11.7378 15.7173H11.8071C11.8455 15.7173 11.8763 15.722 11.8763 15.7278C11.8763 15.7344 11.9418 15.7384 12.0496 15.7384C12.1573 15.7384 12.2228 15.7424 12.2228 15.7489C12.2228 15.7555 12.2882 15.7595 12.396 15.7595C12.5037 15.7595 12.5692 15.7635 12.5692 15.77C12.5692 15.7766 12.6346 15.7806 12.7424 15.7806C12.8502 15.7806 12.9156 15.7846 12.9156 15.7911C12.9156 15.7977 12.981 15.8017 13.0888 15.8017C13.1966 15.8017 13.262 15.8057 13.262 15.8122C13.262 15.8188 13.3275 15.8228 13.4352 15.8228C13.543 15.8228 13.6084 15.8268 13.6084 15.8333C13.6084 15.8399 13.6739 15.8439 13.7817 15.8439C13.8894 15.8439 13.9549 15.8479 13.9549 15.8544C13.9549 15.861 14.0203 15.865 14.1281 15.865C14.2358 15.865 14.3013 15.869 14.3013 15.8755C14.3013 15.8821 14.3667 15.8861 14.4745 15.8861C14.5823 15.8861 14.6477 15.8901 14.6477 15.8966C14.6477 15.9032 14.7131 15.9072 14.8209 15.9072C14.9287 15.9072 14.9941 15.9112 14.9941 15.9177C14.9941 15.9243 15.0596 15.9283 15.1673 15.9283C15.2751 15.9283 15.3405 15.9323 15.3405 15.9388C15.3405 15.9454 15.406 15.9494 15.5138 15.9494C15.6215 15.9494 15.687 15.9534 15.687 15.9599C15.687 15.9665 15.7524 15.9705 15.8602 15.9705C15.9679 15.9705 16.0334 15.9745 16.0334 15.981C16.0334 15.9876 16.0988 15.9916 16.2066 15.9916C16.3144 15.9916 16.3798 15.9955 16.3798 16.0021C16.3798 16.0087 16.4452 16.0127 16.553 16.0127C16.6608 16.0127 16.7262 16.0166 16.7262 16.0232C16.7262 16.0298 16.7917 16.0338 16.8994 16.0338C17.0072 16.0338 17.0726 16.0377 17.0726 16.0443C17.0726 16.0509 17.1381 16.0549 17.2459 16.0549C17.3536 16.0549 17.4191 16.0588 17.4191 16.0654C17.4191 16.072 17.4845 16.0759 17.5923 16.0759C17.7 16.0759 17.7655 16.0799 17.7655 16.0865C17.7655 16.0931 17.8309 16.097 17.9387 16.097C18.0465 16.097 18.1119 16.101 18.1119 16.1076C18.1119 16.1142 18.1773 16.1181 18.2851 16.1181C18.3929 16.1181 18.4583 16.1221 18.4583 16.1287C18.4583 16.1353 18.5238 16.1392 18.6315 16.1392C18.7393 16.1392 18.8047 16.1432 18.8047 16.1498C18.8047 16.1564 18.8702 16.1603 18.978 16.1603C19.0857 16.1603 19.1512 16.1643 19.1512 16.1709C19.1512 16.1774 19.2166 16.1814 19.3244 16.1814C19.4321 16.1814 19.4976 16.1854 19.4976 16.192C19.4976 16.1985 19.563 16.2025 19.6708 16.2025C19.7786 16.2025 19.844 16.2065 19.844 16.2131C19.844 16.2196 19.9056 16.2236 20.0057 16.2236H20.1673V16.0654C20.1673 15.967 20.163 15.9072 20.1558 15.9072C20.1486 15.9072 20.1442 15.8509 20.1442 15.7595C20.1442 15.6681 20.1398 15.6118 20.1327 15.6118C20.1255 15.6118 20.1211 15.552 20.1211 15.4536C20.1211 15.3551 20.1168 15.2954 20.1096 15.2954C20.1025 15.2954 20.0981 15.2391 20.0981 15.1477C20.0981 15.0563 20.0937 15 20.0865 15C20.0793 15 20.075 14.9402 20.075 14.8418C20.075 14.7433 20.0706 14.6835 20.0634 14.6835C20.0563 14.6835 20.0519 14.6273 20.0519 14.5359C20.0519 14.4444 20.0475 14.3882 20.0403 14.3882C20.0331 14.3882 20.0288 14.3284 20.0288 14.23C20.0288 14.1315 20.0244 14.0717 20.0172 14.0717C20.0101 14.0717 20.0057 14.0155 20.0057 13.9241C20.0057 13.8326 20.0013 13.7764 19.9941 13.7764C19.9869 13.7764 19.9826 13.7166 19.9826 13.6181C19.9826 13.5197 19.9782 13.4599 19.971 13.4599C19.9638 13.4599 19.9595 13.4001 19.9595 13.3017C19.9595 13.2032 19.9551 13.1435 19.9479 13.1435C19.9408 13.1435 19.9364 13.0872 19.9364 12.9958C19.9364 12.9044 19.932 12.8481 19.9248 12.8481C19.9177 12.8481 19.9133 12.7883 19.9133 12.6899C19.9133 12.5914 19.9089 12.5316 19.9017 12.5316C19.8946 12.5316 19.8902 12.4754 19.8902 12.384C19.8902 12.2925 19.8858 12.2363 19.8787 12.2363C19.8715 12.2363 19.8671 12.1765 19.8671 12.0781C19.8671 11.9796 19.8627 11.9198 19.8556 11.9198C19.8484 11.9198 19.844 11.8636 19.844 11.7722C19.844 11.6807 19.8396 11.6245 19.8325 11.6245C19.8253 11.6245 19.8209 11.5647 19.8209 11.4662C19.8209 11.3678 19.8165 11.308 19.8094 11.308C19.8022 11.308 19.7978 11.2518 19.7978 11.1603C19.7978 11.0689 19.7934 11.0127 19.7863 11.0127C19.7791 11.0127 19.7747 10.9529 19.7747 10.8544C19.7747 10.756 19.7704 10.6962 19.7632 10.6962C19.756 10.6962 19.7516 10.6399 19.7516 10.5485C19.7516 10.4571 19.7472 10.4008 19.7401 10.4008C19.7329 10.4008 19.7285 10.3411 19.7285 10.2426C19.7285 10.1442 19.7242 10.0844 19.717 10.0844C19.7098 10.0844 19.7054 10.0281 19.7054 9.93671C19.7054 9.84529 19.701 9.78903 19.6939 9.78903C19.6867 9.78903 19.6823 9.72925 19.6823 9.6308C19.6823 9.53235 19.678 9.47257 19.6708 9.47257C19.6637 9.47257 19.6593 9.41632 19.6593 9.32489C19.6593 9.23347 19.6549 9.17721 19.6477 9.17721C19.6405 9.17721 19.6362 9.11744 19.6362 9.01899C19.6362 8.92054 19.6318 8.86076 19.6246 8.86076C19.6175 8.86076 19.6131 8.8045 19.6131 8.71308C19.6131 8.62166 19.6087 8.5654 19.6015 8.5654C19.5943 8.5654 19.59 8.50562 19.59 8.40717C19.59 8.30872 19.5856 8.24895 19.5784 8.24895C19.5713 8.24895 19.5669 8.19269 19.5669 8.10127C19.5669 8.00984 19.5625 7.95359 19.5553 7.95359C19.5481 7.95359 19.5438 7.89381 19.5438 7.79536C19.5438 7.69691 19.5394 7.63713 19.5322 7.63713C19.5251 7.63713 19.5207 7.58088 19.5207 7.48945C19.5207 7.39803 19.5163 7.34177 19.5091 7.34177C19.502 7.34177 19.4976 7.28199 19.4976 7.18354C19.4976 7.08509 19.4932 7.02532 19.486 7.02532C19.4789 7.02532 19.4745 6.96906 19.4745 6.87764C19.4745 6.78621 19.4701 6.72996 19.4629 6.72996C19.4558 6.72996 19.4514 6.67018 19.4514 6.57173C19.4514 6.47328 19.447 6.4135 19.4399 6.4135C19.4335 6.4135 19.4283 6.38977 19.4283 6.36076C19.4283 6.33175 19.4335 6.30802 19.4399 6.30802C19.4463 6.30802 19.4514 6.27988 19.4514 6.24473C19.4514 6.20957 19.4565 6.18143 19.4629 6.18143C19.4694 6.18143 19.4745 6.1533 19.4745 6.11814C19.4745 6.08299 19.4796 6.05485 19.486 6.05485C19.4925 6.05485 19.4976 6.02672 19.4976 5.99156C19.4976 5.9564 19.5027 5.92827 19.5091 5.92827C19.5156 5.92827 19.5207 5.90014 19.5207 5.86498C19.5207 5.82982 19.5258 5.80169 19.5322 5.80169C19.5387 5.80169 19.5438 5.77355 19.5438 5.7384C19.5438 5.70324 19.5489 5.67511 19.5553 5.67511C19.5617 5.67511 19.5669 5.64697 19.5669 5.61181C19.5669 5.57666 19.572 5.54852 19.5784 5.54852C19.5848 5.54852 19.59 5.52039 19.59 5.48523C19.59 5.45007 19.5951 5.42194 19.6015 5.42194C19.6079 5.42194 19.6131 5.39381 19.6131 5.35865C19.6131 5.32349 19.6182 5.29536 19.6246 5.29536C19.631 5.29536 19.6362 5.26723 19.6362 5.23207C19.6362 5.19691 19.6413 5.16878 19.6477 5.16878C19.6541 5.16878 19.6593 5.14064 19.6593 5.10549C19.6593 5.07033 19.6644 5.04219 19.6708 5.04219C19.6772 5.04219 19.6823 5.01406 19.6823 4.9789C19.6823 4.94374 19.6875 4.91561 19.6939 4.91561C19.7003 4.91561 19.7054 4.88748 19.7054 4.85232C19.7054 4.81716 19.7106 4.78903 19.717 4.78903C19.7234 4.78903 19.7285 4.7609 19.7285 4.72574C19.7285 4.69058 19.7337 4.66245 19.7401 4.66245C19.7465 4.66245 19.7516 4.63431 19.7516 4.59916C19.7516 4.564 19.7568 4.53587 19.7632 4.53587C19.7696 4.53587 19.7747 4.50773 19.7747 4.47257C19.7747 4.43742 19.7799 4.40928 19.7863 4.40928C19.7927 4.40928 19.7978 4.38115 19.7978 4.34599C19.7978 4.31083 19.8029 4.2827 19.8094 4.2827C19.8158 4.2827 19.8209 4.25457 19.8209 4.21941C19.8209 4.18425 19.826 4.15612 19.8325 4.15612C19.8389 4.15612 19.844 4.12799 19.844 4.09283C19.844 4.05767 19.8491 4.02954 19.8556 4.02954C19.862 4.02954 19.8671 4.0014 19.8671 3.96624C19.8671 3.93109 19.8722 3.90295 19.8787 3.90295C19.8851 3.90295 19.8902 3.87482 19.8902 3.83966C19.8902 3.8045 19.8953 3.77637 19.9017 3.77637C19.9082 3.77637 19.9133 3.74824 19.9133 3.71308C19.9133 3.67792 19.9184 3.64979 19.9248 3.64979C19.9313 3.64979 19.9364 3.62166 19.9364 3.5865C19.9364 3.55134 19.9415 3.52321 19.9479 3.52321C19.9544 3.52321 19.9595 3.49507 19.9595 3.45992C19.9595 3.42476 19.9646 3.39662 19.971 3.39662C19.9775 3.39662 19.9826 3.36849 19.9826 3.33333C19.9826 3.29817 19.9877 3.27004 19.9941 3.27004C20.0005 3.27004 20.0057 3.24191 20.0057 3.20675C20.0057 3.17159 20.0108 3.14346 20.0172 3.14346C20.0236 3.14346 20.0288 3.11533 20.0288 3.08017C20.0288 3.04501 20.0339 3.01688 20.0403 3.01688C20.0467 3.01688 20.0519 2.98874 20.0519 2.95359C20.0519 2.91843 20.057 2.8903 20.0634 2.8903C20.0698 2.8903 20.075 2.86216 20.075 2.827C20.075 2.79185 20.0801 2.76371 20.0865 2.76371C20.0929 2.76371 20.0981 2.73558 20.0981 2.70042C20.0981 2.66526 20.1032 2.63713 20.1096 2.63713C20.116 2.63713 20.1211 2.609 20.1211 2.57384C20.1211 2.53868 20.1263 2.51055 20.1327 2.51055C20.1391 2.51055 20.1442 2.48242 20.1442 2.44726C20.1442 2.4121 20.1494 2.38397 20.1558 2.38397C20.1622 2.38397 20.1673 2.35583 20.1673 2.32068C20.1673 2.28552 20.1725 2.25738 20.1789 2.25738C20.1855 2.25738 20.1904 2.22574 20.1904 2.18354V2.1097H17.8232C16.2528 2.1097 15.456 2.10615 15.456 2.09916C15.456 2.09335 15.4612 2.08861 15.4676 2.08861C15.4739 2.08861 15.4791 2.06487 15.4791 2.03587C15.4791 2.00686 15.4843 1.98312 15.4907 1.98312C15.497 1.98312 15.5022 1.95939 15.5022 1.93038C15.5022 1.90137 15.5074 1.87764 15.5138 1.87764C15.5201 1.87764 15.5253 1.8539 15.5253 1.82489C15.5253 1.79589 15.5305 1.77215 15.5368 1.77215C15.5432 1.77215 15.5484 1.74842 15.5484 1.71941C15.5484 1.6904 15.5536 1.66667 15.5599 1.66667C15.5663 1.66667 15.5715 1.64293 15.5715 1.61392C15.5715 1.58492 15.5767 1.56118 15.583 1.56118C15.5894 1.56118 15.5946 1.53745 15.5946 1.50844C15.5946 1.47943 15.5998 1.4557 15.6061 1.4557C15.6125 1.4557 15.6177 1.43196 15.6177 1.40295C15.6177 1.37395 15.6229 1.35021 15.6292 1.35021C15.6356 1.35021 15.6408 1.32648 15.6408 1.29747C15.6408 1.26846 15.646 1.24473 15.6523 1.24473C15.6587 1.24473 15.6639 1.22099 15.6639 1.19198C15.6639 1.16297 15.6691 1.13924 15.6754 1.13924C15.6818 1.13924 15.687 1.11551 15.687 1.0865C15.687 1.05749 15.6922 1.03376 15.6985 1.03376C15.7049 1.03376 15.7101 1.01002 15.7101 0.981013C15.7101 0.952004 15.7153 0.92827 15.7216 0.92827C15.728 0.92827 15.7332 0.904536 15.7332 0.875527C15.7332 0.846519 15.7383 0.822785 15.7447 0.822785C15.7511 0.822785 15.7562 0.799051 15.7562 0.770042C15.7562 0.741034 15.7614 0.7173 15.7678 0.7173C15.7741 0.7173 15.7793 0.693565 15.7793 0.664557C15.7793 0.635549 15.7845 0.611814 15.7909 0.611814C15.7972 0.611814 15.8024 0.58808 15.8024 0.559072C15.8024 0.530063 15.8076 0.506329 15.814 0.506329C15.8203 0.506329 15.8255 0.482595 15.8255 0.453586C15.8255 0.424578 15.8307 0.400844 15.8371 0.400844C15.8434 0.400844 15.8486 0.37711 15.8486 0.348101C15.8486 0.319093 15.8538 0.295359 15.8602 0.295359C15.8665 0.295359 15.8717 0.271624 15.8717 0.242616C15.8717 0.213608 15.8769 0.189873 15.8833 0.189873C15.8896 0.189873 15.8948 0.166139 15.8948 0.137131C15.8948 0.108122 15.9 0.0843882 15.9064 0.0843882ZM6.36826 18.2911C6.36057 18.2911 6.35671 15.4712 6.35671 9.85232L6.35671 1.4135L14.0241 1.4135V1.46624C14.0241 1.49525 14.019 1.51899 14.0126 1.51899C14.0062 1.51899 14.0011 1.54272 14.0011 1.57173C14.0011 1.60074 13.9959 1.62447 13.9895 1.62447C13.9832 1.62447 13.978 1.64821 13.978 1.67722C13.978 1.70622 13.9728 1.72996 13.9664 1.72996C13.9601 1.72996 13.9549 1.75369 13.9549 1.7827C13.9549 1.81171 13.9497 1.83544 13.9433 1.83544C13.937 1.83544 13.9318 1.85918 13.9318 1.88819C13.9318 1.91719 13.9266 1.94093 13.9202 1.94093C13.9139 1.94093 13.9087 1.96466 13.9087 1.99367C13.9087 2.02268 13.9035 2.04641 13.8971 2.04641C13.8908 2.04641 13.8856 2.07015 13.8856 2.09916C13.8856 2.12816 13.8804 2.1519 13.874 2.1519C13.8677 2.1519 13.8625 2.17563 13.8625 2.20464C13.8625 2.23365 13.8573 2.25738 13.8509 2.25738C13.8446 2.25738 13.8394 2.28112 13.8394 2.31013C13.8394 2.33913 13.8342 2.36287 13.8278 2.36287C13.8215 2.36287 13.8163 2.3866 13.8163 2.41561C13.8163 2.44462 13.8111 2.46835 13.8047 2.46835C13.7984 2.46835 13.7932 2.49209 13.7932 2.5211C13.7932 2.55011 13.788 2.57384 13.7817 2.57384C13.7753 2.57384 13.7701 2.59757 13.7701 2.62658C13.7701 2.65559 13.7649 2.67932 13.7586 2.67932C13.7522 2.67932 13.747 2.70306 13.747 2.73207C13.747 2.76108 13.7418 2.78481 13.7355 2.78481C13.7291 2.78481 13.7239 2.80854 13.7239 2.83755C13.7239 2.86656 13.7187 2.8903 13.7124 2.8903C13.706 2.8903 13.7008 2.91403 13.7008 2.94304C13.7008 2.97205 13.6956 2.99578 13.6893 2.99578C13.6829 2.99578 13.6777 3.01951 13.6777 3.04852C13.6777 3.07753 13.6725 3.10127 13.6662 3.10127C13.6598 3.10127 13.6546 3.125 13.6546 3.15401C13.6546 3.18302 13.6494 3.20675 13.6431 3.20675C13.6367 3.20675 13.6315 3.23049 13.6315 3.25949C13.6315 3.2885 13.6263 3.31224 13.62 3.31224C13.6136 3.31224 13.6084 3.33597 13.6084 3.36498C13.6084 3.39399 13.6032 3.41772 13.5969 3.41772C13.5905 3.41772 13.5853 3.44146 13.5853 3.47046C13.5853 3.49947 13.5802 3.52321 13.5738 3.52321C13.5674 3.52321 13.5623 3.54694 13.5623 3.57595C13.5623 3.60496 13.5571 3.62869 13.5507 3.62869C13.5444 3.62869 13.5392 3.65243 13.5392 3.68143C13.5392 3.71044 13.534 3.73418 13.5276 3.73418C13.5213 3.73418 13.5161 3.75791 13.5161 3.78692C13.5161 3.81593 13.5109 3.83966 13.5045 3.83966C13.4982 3.83966 13.493 3.8634 13.493 3.89241C13.493 3.92141 13.4878 3.94515 13.4814 3.94515C13.4751 3.94515 13.4699 3.96888 13.4699 3.99789C13.4699 4.0269 13.4647 4.05063 13.4583 4.05063C13.452 4.05063 13.4468 4.07437 13.4468 4.10338C13.4468 4.13238 13.4416 4.15612 13.4352 4.15612C13.4289 4.15612 13.4237 4.17985 13.4237 4.20886C13.4237 4.23787 13.4185 4.2616 13.4121 4.2616C13.4058 4.2616 13.4006 4.28534 13.4006 4.31435C13.4006 4.34335 13.3954 4.36709 13.389 4.36709C13.3827 4.36709 13.3775 4.39082 13.3775 4.41983C13.3775 4.44884 13.3723 4.47257 13.3659 4.47257C13.3596 4.47257 13.3544 4.49631 13.3544 4.52532C13.3544 4.55432 13.3492 4.57806 13.3429 4.57806C13.3365 4.57806 13.3313 4.60179 13.3313 4.6308C13.3313 4.65981 13.3261 4.68354 13.3198 4.68354C13.3134 4.68354 13.3082 4.70728 13.3082 4.73629C13.3082 4.7653 13.303 4.78903 13.2967 4.78903C13.2903 4.78903 13.2851 4.81073 13.2851 4.83725C13.2851 4.86498 13.2781 4.89188 13.2686 4.90054C13.2545 4.91345 13.0326 4.91561 11.7213 4.91561H10.1904V7.74262H13.262V11.2447H10.1904L10.1904 17.5949H10.1327C10.1009 17.5949 10.075 17.5997 10.075 17.6055C10.075 17.6113 10.049 17.616 10.0172 17.616C9.98546 17.616 9.95948 17.6208 9.95948 17.6266C9.95948 17.6324 9.9335 17.6371 9.90175 17.6371C9.86999 17.6371 9.84401 17.6419 9.84401 17.6477C9.84401 17.6535 9.81803 17.6582 9.78627 17.6582C9.75452 17.6582 9.72854 17.663 9.72854 17.6688C9.72854 17.6746 9.70255 17.6793 9.6708 17.6793C9.63904 17.6793 9.61306 17.6841 9.61306 17.6899C9.61306 17.6957 9.58708 17.7004 9.55533 17.7004C9.52357 17.7004 9.49759 17.7052 9.49759 17.711C9.49759 17.7168 9.47161 17.7215 9.43985 17.7215C9.4081 17.7215 9.38212 17.7263 9.38212 17.7321C9.38212 17.7379 9.35613 17.7426 9.32438 17.7426C9.29262 17.7426 9.26664 17.7474 9.26664 17.7532C9.26664 17.759 9.24066 17.7637 9.20891 17.7637C9.17715 17.7637 9.15117 17.7685 9.15117 17.7743C9.15117 17.7801 9.12519 17.7848 9.09343 17.7848C9.06168 17.7848 9.0357 17.7896 9.0357 17.7954C9.0357 17.8012 9.00971 17.8059 8.97796 17.8059C8.9462 17.8059 8.92022 17.8107 8.92022 17.8165C8.92022 17.8223 8.89424 17.827 8.86248 17.827C8.83073 17.827 8.80475 17.8318 8.80475 17.8376C8.80475 17.8434 8.77877 17.8481 8.74701 17.8481C8.71526 17.8481 8.68927 17.8528 8.68927 17.8587C8.68927 17.8645 8.66329 17.8692 8.63154 17.8692C8.59978 17.8692 8.5738 17.8739 8.5738 17.8797C8.5738 17.8855 8.54782 17.8903 8.51606 17.8903C8.48431 17.8903 8.45833 17.895 8.45833 17.9008C8.45833 17.9066 8.43235 17.9114 8.40059 17.9114C8.36884 17.9114 8.34285 17.9161 8.34285 17.9219C8.34285 17.9277 8.31687 17.9325 8.28512 17.9325C8.25336 17.9325 8.22738 17.9372 8.22738 17.943C8.22738 17.9488 8.2014 17.9536 8.16964 17.9536C8.13789 17.9536 8.11191 17.9583 8.11191 17.9641C8.11191 17.9699 8.08593 17.9747 8.05417 17.9747C8.02242 17.9747 7.99643 17.9794 7.99643 17.9852C7.99643 17.991 7.97045 17.9958 7.9387 17.9958C7.90694 17.9958 7.88096 18.0005 7.88096 18.0063C7.88096 18.0121 7.85498 18.0169 7.82322 18.0169C7.79147 18.0169 7.76549 18.0216 7.76549 18.0274C7.76549 18.0332 7.73951 18.038 7.70775 18.038C7.67599 18.038 7.65001 18.0427 7.65001 18.0485C7.65001 18.0543 7.62403 18.0591 7.59228 18.0591C7.56052 18.0591 7.53454 18.0638 7.53454 18.0696C7.53454 18.0754 7.50856 18.0802 7.4768 18.0802C7.44505 18.0802 7.41907 18.0849 7.41907 18.0907C7.41907 18.0965 7.39309 18.1013 7.36133 18.1013C7.32958 18.1013 7.30359 18.106 7.30359 18.1118C7.30359 18.1176 7.27761 18.1224 7.24586 18.1224C7.2141 18.1224 7.18812 18.1271 7.18812 18.1329C7.18812 18.1387 7.16214 18.1435 7.13038 18.1435C7.09863 18.1435 7.07265 18.1482 7.07265 18.154C7.07265 18.1598 7.04666 18.1646 7.01491 18.1646C6.98315 18.1646 6.95717 18.1693 6.95717 18.1751C6.95717 18.1809 6.93119 18.1857 6.89944 18.1857C6.86768 18.1857 6.8417 18.1904 6.8417 18.1962C6.8417 18.202 6.81572 18.2068 6.78396 18.2068C6.75221 18.2068 6.72623 18.2115 6.72623 18.2173C6.72623 18.2231 6.70024 18.2278 6.66849 18.2278C6.63673 18.2278 6.61075 18.2326 6.61075 18.2384C6.61075 18.2442 6.58477 18.2489 6.55302 18.2489C6.52126 18.2489 6.49528 18.2537 6.49528 18.2595C6.49528 18.2653 6.4693 18.27 6.43754 18.27C6.40579 18.27 6.37981 18.2748 6.37981 18.2806C6.37981 18.2864 6.37461 18.2911 6.36826 18.2911Z" fill="#68889C"/>
</g>
<defs>
<clipPath id="clip0_0_80">
<rect x="0.19043" width="20" height="20" rx="6" fill="white"/>
</clipPath>
</defs>
</svg>
