<svg width="36" height="46" viewBox="0 0 36 46" fill="none" xmlns="http://www.w3.org/2000/svg">
<path d="M6.55754 20.0082C8.03943 12.1077 14.9312 6.2914 23.0579 6.2914H29.5814V15.4582H35.8467V0H23.0579C19.9465 0 16.9264 0.612628 14.0818 1.82083C11.3358 2.98707 8.87018 4.65612 6.75351 6.7816C4.63697 8.90694 2.97482 11.3828 1.81328 14.1404C0.610071 16.9969 0 20.0295 0 23.1539V26.2996H29.4369C27.9592 34.0246 21.202 39.7086 13.2486 39.7086H6.26533V29.7722H0V46H13.2486C16.3186 46 19.2985 45.3955 22.1054 44.2033C24.8151 43.0525 27.2479 41.4057 29.3363 39.3085C31.4247 37.2115 33.0647 34.7686 34.2108 32.0476C35.398 29.229 36 26.2368 36 23.1539V20.0082L6.55752 20.0082H6.55754Z" fill="#5C6DB9"/>
</svg>
